<?xml version="1.0" encoding="UTF-8"?>
<svg width="22px" height="22px" viewBox="0 0 22 22" version="1.1" xmlns="http://www.w3.org/2000/svg" xmlns:xlink="http://www.w3.org/1999/xlink">
    <title>F4B98F09-B458-449B-9BEB-CB4708D4A9CA</title>
    <g id="High-Fidelity" stroke="none" stroke-width="1" fill="none" fill-rule="evenodd">
        <g id="XL-Desktop---Footer" transform="translate(-1537.000000, -429.000000)" fill="#989898" fill-rule="nonzero">
            <g id=".o-footer__fos-xl" transform="translate(0.000000, 76.000000)">
                <g id=".m-social-icons_all" transform="translate(1335.000000, 352.000000)">
                    <g id=".a-socialIcon__spotify" transform="translate(202.000000, 1.000000)">
                        <path d="M10.9994762,0.0362738095 C4.94305952,0.0362738095 0.0331309524,4.94607143 0.0331309524,11.0024881 C0.0331309524,17.0591667 4.94305952,21.9685714 10.9994762,21.9685714 C17.0565476,21.9685714 21.9659524,17.0591667 21.9659524,11.0024881 C21.9659524,4.94646429 17.0565476,0.036797619 10.9993452,0.036797619 L10.9994762,0.0362738095 Z M16.0285714,15.8527024 C15.8321429,16.1748452 15.4104762,16.2769881 15.0883333,16.07925 C12.5135476,14.5065119 9.27221429,14.1503214 5.45495238,15.0224643 C5.08710714,15.1062738 4.72044048,14.8757976 4.63663095,14.5078214 C4.55242857,14.1398452 4.7819881,13.7731786 5.15075,13.689369 C9.32813095,12.7349881 12.911381,13.1459167 15.8020238,14.9124643 C16.1241667,15.1102024 16.2263095,15.5305595 16.0285714,15.8527024 L16.0285714,15.8527024 Z M17.3708333,12.8667262 C17.1233333,13.2690119 16.5969048,13.3960357 16.194881,13.1485357 C13.2471429,11.3366786 8.75377381,10.8119524 5.26716667,11.8703095 C4.8149881,12.0068929 4.33740476,11.7520595 4.20016667,11.3006667 C4.06397619,10.8484881 4.31894048,10.3718214 4.77033333,10.2343214 C8.7529881,9.02589286 13.7041667,9.61125 17.0892857,11.6914286 C17.4913095,11.9389286 17.6183333,12.4653571 17.3708333,12.8668571 L17.3708333,12.8667262 Z M17.4860714,9.75739286 C13.9516667,7.65809524 8.12035714,7.46507143 4.74584524,8.48925 C4.20396429,8.65359524 3.63091667,8.34769048 3.46670238,7.80580952 C3.3024881,7.26366667 3.60813095,6.6910119 4.15040476,6.52627381 C8.02410714,5.35032143 14.4636905,5.57752381 18.5329048,7.99320238 C19.0213571,8.28247619 19.181119,8.91196429 18.8917143,9.39871429 C18.603619,9.88611905 17.9724286,10.0467976 17.4865952,9.75739286 L17.4860714,9.75739286 Z" id="Shape"></path>
                    </g>
                </g>
            </g>
        </g>
    </g>
</svg>