<?xml version="1.0" encoding="UTF-8"?>
<svg width="25px" height="17px" viewBox="0 0 25 17" version="1.1" xmlns="http://www.w3.org/2000/svg" xmlns:xlink="http://www.w3.org/1999/xlink">
    <title>ABA6E134-81C6-4F5A-B26A-9A49B2820151</title>
    <defs>
        <polygon id="path-1" points="0.00818181818 0.00545454545 24 0.00545454545 24 16.9090909 0.00818181818 16.9090909"></polygon>
    </defs>
    <g id="High-Fidelity" stroke="none" stroke-width="1" fill="none" fill-rule="evenodd">
        <g id="XL-Desktop---Footer" transform="translate(-1492.000000, -431.000000)">
            <g id=".o-footer__fos-xl" transform="translate(0.000000, 76.000000)">
                <g id=".m-social-icons_all" transform="translate(1335.000000, 352.000000)">
                    <g id=".a-socialIcon__youtube" transform="translate(157.000000, 3.000000)">
                        <mask id="mask-2" fill="white">
                            <use xlink:href="#path-1"></use>
                        </mask>
                        <g id="Clip-2"></g>
                        <path d="M9.54545455,12.0230455 L9.54545455,4.88604545 L15.8181818,8.45468182 L9.54545455,12.0230455 Z M23.4984545,2.64040909 C23.2224545,1.60104545 22.4091818,0.782590909 21.3766364,0.504818182 C19.5050455,0 12,0 12,0 C12,0 4.49495455,0 2.62336364,0.504818182 C1.59081818,0.782590909 0.777545455,1.60104545 0.501545455,2.64040909 C0,4.52413636 0,8.45454545 0,8.45454545 C0,8.45454545 0,12.3848182 0.501545455,14.2686818 C0.777545455,15.3080455 1.59081818,16.1265 2.62336364,16.4044091 C4.49495455,16.9090909 12,16.9090909 12,16.9090909 C12,16.9090909 19.5050455,16.9090909 21.3766364,16.4044091 C22.4091818,16.1265 23.2224545,15.3080455 23.4984545,14.2686818 C24,12.3848182 24,8.45454545 24,8.45454545 C24,8.45454545 24,4.52413636 23.4984545,2.64040909 L23.4984545,2.64040909 Z" id="Fill-1" fill="#989898" mask="url(#mask-2)"></path>
                    </g>
                </g>
            </g>
        </g>
    </g>
</svg>